<svg width="258" height="56" viewBox="0 0 258 56" fill="none" xmlns="http://www.w3.org/2000/svg">
<g clip-path="url(#clip0_38_23)">
<path d="M75.6602 21.5111C80.9874 21.5111 84.4265 24.2758 86.0449 28.9287H94.0021C92.0465 20.095 85.0334 14.5654 75.6602 14.5654C64.4663 14.5654 56.0371 23.2643 56.0371 34.6606C56.0371 46.0568 64.4663 54.486 75.6602 54.486C85.0334 54.486 91.8442 48.6867 94.0021 40.1227H86.0449C84.4265 44.5058 80.92 47.5403 75.6602 47.5403C68.31 47.5403 63.7245 42.2805 63.7245 34.728C63.7245 27.1755 68.31 21.5111 75.6602 21.5111Z" fill="#14234C"/>
<path d="M108.5 18.8816H108.163L107.758 15.1053H101.083V54.6213H108.5V29.6035C108.5 24.3437 112.546 21.444 117.873 21.444C118.347 21.4235 118.821 21.4461 119.29 21.5115V14.2961C118.825 14.1923 118.349 14.147 117.873 14.1612C116.057 14.1966 114.273 14.6391 112.65 15.456C111.028 16.273 109.61 17.4436 108.5 18.8816Z" fill="#14234C"/>
<path d="M188.139 14.1611C181.53 14.1611 177.484 16.9933 175.731 18.8815H175.394L174.989 15.1052H168.313V54.6211H175.731V29.7382C175.731 24.2087 180.721 21.3091 186.858 21.3091C192.117 21.3091 195.894 23.939 195.894 29.4011V54.6211H203.311V28.929C203.244 18.0048 195.557 14.1611 188.139 14.1611Z" fill="#14234C"/>
<path d="M220.237 15.105H212.82V54.6209H220.237V15.105Z" fill="#14234C"/>
<path d="M141.138 14.5654C129.877 14.5654 121.312 23.1295 121.312 34.5257C121.312 45.9219 129.809 54.486 141.138 54.486C152.467 54.486 160.963 45.9219 160.963 34.5257C160.963 23.1295 152.399 14.5654 141.138 14.5654ZM141.138 47.338C133.788 47.338 129.067 41.9434 129.067 34.5257C129.067 27.108 133.788 21.5785 141.138 21.5785C148.488 21.5785 153.208 27.108 153.208 34.5257C153.208 41.9434 148.488 47.338 141.138 47.338Z" fill="#14234C"/>
<path d="M244.176 30.6145C236.826 28.9961 237.163 27.1754 237.163 25.557C237.163 23.6014 239.321 21.1738 242.895 21.1738C245.862 21.1738 249.031 22.6574 249.031 27.6474H256.179C256.449 19.5554 251.122 14.6328 242.895 14.6328C235.612 14.6328 229.745 19.6903 229.745 25.8942C229.745 33.7164 235.949 36.1441 242.693 37.6276C249.84 39.1786 250.447 41.4039 250.447 42.9548C250.447 45.9219 247.413 48.4844 243.165 48.4844C240.13 48.4844 235.477 46.5962 235.477 40.8644H228.329C227.857 49.9005 234.398 55.0928 243.165 55.0928C251.459 55.0928 258 49.7656 258 42.6851C257.932 34.5931 250.852 32.0306 244.176 30.6145Z" fill="#14234C"/>
<path d="M24.6132 0L0 54.621H7.8897L12.6775 43.6294H43.2922L48.08 54.621H55.9022L31.4239 0H24.6132ZM27.85 9.3058H28.1871L28.5917 10.3173L35.5374 26.2316H20.4997L27.4454 10.3173L27.85 9.3058ZM15.4422 37.4255L17.735 32.3006H38.2347L40.5274 37.4255H15.4422Z" fill="#14234C"/>
</g>
<defs>
<clipPath id="clip0_38_23">
<rect width="258" height="55.093" fill="white"/>
</clipPath>
</defs>
</svg>
