<svg width="207" height="60" viewBox="0 0 207 60" fill="none" xmlns="http://www.w3.org/2000/svg">
<g clip-path="url(#clip0_38_3)">
<path d="M89.9894 58.7668H80.7132L79.271 53.9128H68.0718L66.6296 58.7668H57.3066L68.4079 25.1226H78.886L89.9894 58.7668ZM73.6492 35.071L70.2841 46.5149H77.061L73.6492 35.071Z" fill="#1556A4"/>
<path d="M110.047 41.4651L121.197 58.7668H111.584L101.932 43.7241V58.7668H93.3213V25.1226H101.932V39.2528L111.113 25.1226H120.727L110.047 41.4651Z" fill="#1556A4"/>
<path d="M124.731 25.1226H145.429V33.4374H137.25V58.7668H128.639V33.4374H119.374L124.731 25.1226Z" fill="#1556A4"/>
<path d="M176.412 58.7668H167.856V41.8412L155.983 58.7557H149.306V25.1226H157.906V42.0371L169.777 25.1226H176.412V58.7668Z" fill="#1556A4"/>
<path d="M202.771 41.3694C205.59 43.0341 207 45.549 207 48.9141C207 51.9276 205.975 54.3149 203.924 56.0761C201.847 57.8699 199.107 58.7668 195.705 58.7668H181.526V25.1226H194.793C198.189 25.1226 200.889 25.9794 202.892 27.6931C204.895 29.4068 205.896 31.7385 205.896 34.6881C205.896 37.5087 204.855 39.7358 202.771 41.3694ZM194.552 32.812H190.13V38.1H194.552C195.274 38.129 195.979 37.8796 196.522 37.4034C197.037 36.939 197.293 36.2898 197.292 35.456C197.308 35.0991 197.248 34.7429 197.115 34.4112C196.982 34.0796 196.78 33.7802 196.522 33.5331C195.986 33.0431 195.278 32.784 194.552 32.812ZM190.13 51.0774H195.471C195.859 51.0927 196.246 51.0305 196.61 50.8945C196.973 50.7584 197.306 50.5513 197.588 50.2851C198.113 49.7294 198.405 48.9941 198.405 48.2298C198.405 47.4655 198.113 46.7301 197.588 46.1744C197.011 45.6503 196.25 45.3745 195.471 45.4066H190.13V51.0774Z" fill="#1556A4"/>
<path d="M47.639 11.239L53.4255 20.217H48.438L43.426 12.4119V20.217H38.9614V2.76172H43.426V10.0928L48.1887 2.76172H53.1763L47.639 11.239Z" fill="#25BADC"/>
<path d="M72.6653 17.974C71.8173 18.8252 70.8056 19.4959 69.6914 19.9458C68.5772 20.3956 67.3835 20.6152 66.1822 20.5913C63.6049 20.5913 61.435 19.7189 59.6723 17.974C57.9097 16.2292 57.0283 14.0674 57.0283 11.4887C57.0283 8.92923 57.9097 6.77783 59.6723 5.03445C61.435 3.29107 63.6049 2.41048 66.1822 2.39267C67.3856 2.36675 68.5815 2.58736 69.6965 3.04091C70.8114 3.49447 71.8218 4.17138 72.6653 5.03C74.4458 6.77634 75.336 8.92775 75.336 11.4842C75.3578 12.691 75.132 13.8895 74.6726 15.0057C74.2133 16.1218 73.5302 17.1321 72.6653 17.974ZM62.8149 14.9116C63.4774 15.5876 64.328 16.0485 65.2561 16.2343C66.1842 16.4201 67.1467 16.3222 68.0184 15.9534C68.8901 15.5846 69.6305 14.9618 70.1434 14.1663C70.6562 13.3708 70.9177 12.4393 70.8938 11.4931C70.8938 10.0984 70.4449 8.96855 69.5473 8.10354C68.6402 7.2381 67.4347 6.75525 66.1811 6.75525C64.9274 6.75525 63.7219 7.2381 62.8149 8.10354C61.9246 8.96707 61.4758 10.0969 61.4684 11.4931C61.448 12.1246 61.557 12.7536 61.7885 13.3415C62.02 13.9293 62.3693 14.4636 62.8149 14.9116Z" fill="#25BADC"/>
<path d="M94.7436 2.76172H99.1836V20.217H94.7436V10.8161L90.515 17.8223H90.0698L85.8412 10.8406V20.217H81.3789V2.76172H85.8412L90.2813 10.2174L94.7436 2.76172Z" fill="#25BADC"/>
<path d="M106.199 2.76172H119.666V20.217H115.201V7.08604H110.663V20.217H106.199V2.76172Z" fill="#25BADC"/>
<path d="M142.378 20.217H137.564L136.816 17.6999H131.007L130.257 20.217H125.421L131.181 2.76172H136.618L142.378 20.217ZM133.898 7.92286L132.153 13.8585H135.67L133.898 7.92286Z" fill="#25BADC"/>
<path d="M157.069 9.22038V2.76617H161.52V20.217H157.069V13.5091H152.157V20.217H147.692V2.76172H152.157V9.21593L157.069 9.22038Z" fill="#25BADC"/>
<path d="M182.848 20.217H178.41V11.4393L172.261 20.217H168.784V2.76172H173.249V11.5394L179.407 2.76172H182.848V20.217Z" fill="#25BADC"/>
<path d="M196.119 2.76172H203.101V20.217H198.663V14.5818H197.715L194.198 20.217H189.235L193.226 13.9587C192.219 13.5106 191.363 12.7829 190.758 11.8622C190.163 10.9511 189.853 9.88336 189.867 8.7953C189.867 7.03411 190.466 5.59638 191.663 4.4821C192.855 3.3337 194.34 2.76024 196.119 2.76172ZM196.168 10.7917H198.663V6.87684H196.168C195.918 6.8707 195.67 6.9175 195.44 7.01417C195.21 7.11084 195.003 7.25518 194.833 7.43769C194.654 7.62512 194.514 7.84618 194.422 8.08803C194.33 8.32988 194.286 8.58769 194.294 8.84649C194.284 9.10706 194.326 9.3671 194.418 9.61106C194.51 9.85503 194.65 10.0779 194.83 10.2664C195.002 10.4461 195.21 10.5861 195.441 10.6769C195.672 10.7676 195.92 10.8068 196.168 10.7917Z" fill="#25BADC"/>
<path d="M0.413951 24.7041C-0.0879543 27.6522 -0.133743 30.66 0.278189 33.622H25.5765V58.9537C28.5522 59.3704 31.5744 59.3261 34.5367 58.8224V24.7041H0.413951Z" fill="#25BADC"/>
<path d="M1.23535 38.082C2.64386 42.786 5.19742 47.067 8.66718 50.5414C12.1369 54.0158 16.4145 56.5751 21.1166 57.9899V38.082H1.23535ZM16.3916 48.0282H11.1682V42.8047H16.3916V48.0282Z" fill="#25BADC"/>
<path d="M58.8313 24.7041H42.3085H38.999V57.7118C45.6985 55.48 51.3794 50.9266 55.0162 44.8737C58.653 38.8208 60.0061 31.6671 58.8313 24.7041ZM49.4459 35.151H44.2225V29.9209H49.4459V35.151Z" fill="#25BADC"/>
<path d="M30.0457 0V4.78725H25.5945V0.271522C24.088 0.476836 22.5998 0.799035 21.1433 1.2352V7.50469H16.6921V2.98007C13.1513 4.71001 9.98986 7.1268 7.3917 10.0898C4.79355 13.0529 2.81056 16.503 1.55811 20.2395H34.5369V0.405058C33.0522 0.157196 31.5508 0.0217921 30.0457 0Z" fill="#25BADC"/>
</g>
<defs>
<clipPath id="clip0_38_3">
<rect width="207" height="59.2363" fill="white"/>
</clipPath>
</defs>
</svg>
