<svg width="270" height="82" viewBox="0 0 270 82" fill="none" xmlns="http://www.w3.org/2000/svg">
<path d="M126.561 37.6586H129.314V32.6563H127.06V19.1685H124.312V32.6563H113.572V19.1685H110.824V35.4079H126.561V37.6586Z" fill="#255BB1"/>
<path d="M145.213 23.1179V35.4066H147.965V19.167H145.355L134.474 31.2424V19.167H131.726V35.4066H134.335L145.213 23.1179Z" fill="#255BB1"/>
<path d="M155.808 31.0894C155.244 31.0894 154.78 30.8998 154.391 30.5065C153.998 30.1184 153.809 29.6537 153.809 29.0897V25.4853C153.809 24.9214 153.998 24.4621 154.391 24.0781C154.78 23.69 155.244 23.5007 155.808 23.5007H158.698V31.0894H155.808ZM164.349 23.5007C164.913 23.5007 165.377 23.69 165.766 24.0781C166.159 24.4621 166.348 24.9214 166.348 25.4853V29.0897C166.348 29.6537 166.159 30.1184 165.766 30.5065C165.377 30.8998 164.913 31.0894 164.349 31.0894H161.446V23.5007H164.349ZM161.446 36.078V33.8423H164.349C164.993 33.8423 165.614 33.7094 166.187 33.458C166.761 33.2031 167.263 32.862 167.694 32.4402C168.12 32.0133 168.461 31.507 168.712 30.9335C168.959 30.3547 169.087 29.7344 169.087 29.0897V25.4853C169.087 24.8409 168.959 24.2245 168.712 23.6525C168.461 23.0831 168.12 22.5768 167.694 22.1457C167.267 21.7185 166.761 21.3774 166.187 21.1264C165.614 20.8753 164.993 20.7478 164.349 20.7478H161.446V18.4971H158.698V20.7478H155.808C155.164 20.7478 154.538 20.8753 153.964 21.1264C153.383 21.3774 152.875 21.7185 152.454 22.1457C152.028 22.5713 151.687 23.0789 151.436 23.6525C151.185 24.2245 151.056 24.8409 151.056 25.4853V29.0897C151.056 29.753 151.179 30.3788 151.426 30.9523C151.667 31.5298 152.008 32.0415 152.43 32.463C152.861 32.8847 153.368 33.2258 153.941 33.4676C154.519 33.7145 155.149 33.8423 155.808 33.8423H158.698V36.078H161.446Z" fill="#255BB1"/>
<path d="M174.931 21.9199H183.671C184.235 21.9199 184.699 22.1094 185.092 22.4989C185.48 22.8909 185.67 23.3556 185.67 23.9195V26.1703C185.67 26.7329 185.48 27.1976 185.092 27.5909C184.699 27.9791 184.235 28.1683 183.671 28.1683H174.931V21.9199ZM187.049 29.4765C187.476 29.04 187.817 28.5337 188.053 27.9752C188.295 27.4151 188.422 26.804 188.422 26.1703V23.9102C188.404 23.2508 188.261 22.6263 188.006 22.0476C187.74 21.4702 187.395 20.9678 186.978 20.5463C186.556 20.1245 186.05 19.7889 185.48 19.5417C184.907 19.2906 184.301 19.167 183.671 19.167H172.183V35.4079H174.931V30.9065H183.671C184.335 30.9065 184.964 30.779 185.538 30.5186C186.115 30.2634 186.618 29.9115 187.049 29.4765Z" fill="#255BB1"/>
<path d="M204.556 23.9182V30.6595C204.556 31.2235 204.365 31.6882 203.973 32.0802C203.583 32.4696 203.115 32.6589 202.556 32.6589H195.815C195.251 32.6589 194.782 32.4696 194.393 32.0802C194.001 31.6882 193.811 31.2235 193.811 30.6595V23.9182C193.811 23.3543 194.001 22.8909 194.393 22.4976C194.782 22.1094 195.246 21.9186 195.815 21.9186H202.556C203.115 21.9186 203.583 22.1094 203.973 22.4976C204.365 22.8909 204.556 23.3543 204.556 23.9182ZM205.896 34.0087C206.327 33.587 206.668 33.0807 206.923 32.502C207.174 31.93 207.303 31.3081 207.303 30.6595V23.9182C207.303 23.2697 207.17 22.6491 206.91 22.0758C206.649 21.5064 206.293 21.0001 205.862 20.5745C205.431 20.1473 204.925 19.801 204.361 19.5513C203.793 19.2947 203.182 19.167 202.556 19.167H195.815C195.17 19.167 194.55 19.2947 193.967 19.5513C193.394 19.801 192.887 20.1527 192.46 20.5745C192.035 21.0001 191.694 21.5064 191.442 22.0797C191.191 22.6532 191.062 23.2736 191.062 23.9182V30.6595C191.062 31.3228 191.186 31.9486 191.428 32.5221C191.675 33.0996 192.016 33.6059 192.438 34.0369C192.863 34.4638 193.375 34.7995 193.948 35.0467C194.526 35.283 195.156 35.4066 195.815 35.4066H202.556C203.201 35.4066 203.821 35.2789 204.395 35.0278C204.967 34.7713 205.469 34.4302 205.896 34.0087Z" fill="#255BB1"/>
<path d="M213.134 28.6692H221.875C222.439 28.6692 222.904 28.8601 223.291 29.2428C223.685 29.6322 223.874 30.0956 223.874 30.6595C223.874 31.2235 223.685 31.6882 223.291 32.0802C222.904 32.4696 222.439 32.6589 221.875 32.6589H213.134V28.6692ZM221.875 25.9179H213.134V21.9186H221.875C222.439 21.9186 222.904 22.1094 223.291 22.4976C223.685 22.8909 223.874 23.3543 223.874 23.9182C223.874 24.4822 223.685 24.9469 223.291 25.3389C222.904 25.7283 222.439 25.9179 221.875 25.9179ZM225.252 33.9617C225.679 33.5399 226.015 33.0378 226.257 32.4831C226.498 31.9245 226.626 31.3081 226.626 30.6595C226.626 29.3382 226.153 28.2007 225.214 27.286C226.153 26.3771 226.626 25.2396 226.626 23.9182C226.626 23.255 226.494 22.6305 226.228 22.0476C225.964 21.4741 225.617 20.9665 225.186 20.545C224.761 20.1232 224.249 19.7876 223.676 19.5404C223.097 19.2947 222.491 19.167 221.875 19.167H210.382V35.4066H210.633H221.88C222.544 35.3919 223.168 35.2549 223.747 34.9903C224.315 34.7338 224.821 34.3886 225.252 33.9617Z" fill="#255BB1"/>
<path d="M232.457 27.5387H241.198C241.762 27.5387 242.225 27.728 242.619 28.1215C243.007 28.5094 243.198 28.9741 243.198 29.5381V30.6608C243.198 31.2194 243.007 31.6841 242.619 32.0776C242.225 32.4696 241.762 32.6605 241.198 32.6605H232.457V27.5387ZM244.575 33.9723C245.003 33.5412 245.344 33.0336 245.58 32.4696C245.822 31.9018 245.949 31.2959 245.949 30.6608V29.5329C245.93 28.8748 245.788 28.2449 245.533 27.6662C245.267 27.0887 244.922 26.5866 244.504 26.1648C244.083 25.7433 243.577 25.4074 243.007 25.1605C242.435 24.9146 241.828 24.7858 241.198 24.7858H232.457V19.167H229.71V35.4079H241.198C241.862 35.4079 242.492 35.275 243.069 35.0144C243.642 34.754 244.144 34.4033 244.575 33.9723Z" fill="#255BB1"/>
<path d="M250.449 19.1685H247.7V35.4079H250.449V19.1685Z" fill="#255BB1"/>
<path d="M270 21.9199V19.167H253.761V35.4079H270V32.6605H256.512V28.6708H267.749V25.9192H256.512V21.9199H270Z" fill="#255BB1"/>
<path d="M113.577 49.7675H122.317C122.881 49.7675 123.346 49.9568 123.734 50.3504C124.128 50.7437 124.317 51.203 124.317 51.7672V54.0164C124.317 54.5803 124.128 55.045 123.734 55.4386C123.346 55.8267 122.881 56.016 122.317 56.016H113.577V49.7675ZM125.62 48.3978C125.198 47.9774 124.696 47.6363 124.128 47.3893C123.554 47.1434 122.947 47.0146 122.317 47.0146H110.825V63.2595H113.577V58.7596H122.317C122.977 58.7596 123.611 58.6264 124.184 58.366C124.758 58.1095 125.265 57.7591 125.696 57.3281C126.118 56.8929 126.459 56.3853 126.699 55.8267C126.941 55.2625 127.065 54.6517 127.065 54.0164V51.7618C127.05 51.1037 126.909 50.474 126.648 49.895C126.388 49.3217 126.037 48.8154 125.62 48.3978Z" fill="#255BB1"/>
<path d="M129.929 63.2585H146.17V60.5056H132.682V56.5172H143.923V53.7697H132.682V49.7666H146.17V47.0176H129.929V63.2585Z" fill="#255BB1"/>
<path d="M167.024 60.508H160.775V47.0161H158.032V60.508H151.783V47.0161H149.036V63.2596H169.771V47.0161H167.024V60.508Z" fill="#255BB1"/>
<path d="M173.086 63.2585H189.326V60.5056H175.839V56.5172H187.077V53.7697H175.839V49.7666H189.326V47.0176H173.086V63.2585Z" fill="#255BB1"/>
<path d="M205.676 53.7667H194.937V47.0161H192.185V63.2555H194.937V56.5196H205.676V63.2555H208.429V47.0161H205.676V53.7667Z" fill="#255BB1"/>
<path d="M214.49 59.0944V47.019H211.737V63.2587H214.352L225.229 50.97V63.2587H227.982V47.019H225.368L214.49 59.0944Z" fill="#255BB1"/>
<path d="M244.783 49.7675V56.016H236.043C235.479 56.016 235.011 55.8267 234.621 55.4386C234.233 55.0491 234.044 54.5858 234.044 54.0164V51.7672C234.044 51.203 234.233 50.7385 234.621 50.3504C235.011 49.9568 235.479 49.7675 236.043 49.7675H244.783ZM234.171 47.4134C233.598 47.674 233.092 48.0244 232.67 48.4596C232.248 48.8907 231.913 49.3983 231.662 49.9623C231.42 50.5304 231.291 51.1373 231.291 51.7672V54.0164C231.291 54.5335 231.377 55.0396 231.542 55.519C231.703 56.0025 231.941 56.4429 232.234 56.8311C232.524 57.2192 232.878 57.5657 233.281 57.8543C233.575 58.0679 233.888 58.2478 234.22 58.3849L231.291 61.3123V63.2595H233.247L237.739 58.7596H244.783V63.2595H247.536V47.0146H236.043C235.384 47.0146 234.754 47.153 234.171 47.4134Z" fill="#255BB1"/>
<path fill-rule="evenodd" clip-rule="evenodd" d="M64.3693 20.5329C63.0624 21.6089 62.4038 22.8297 62.4038 24.188C62.4038 24.9772 62.59 25.7452 62.958 26.4915C63.6396 24.6354 64.1107 22.6487 64.3693 20.5329ZM59.4138 32.8499C58.5465 32.0982 57.9228 31.4783 57.5447 30.9875C56.3408 29.4187 55.7372 27.77 55.7372 26.0439C55.7372 23.2939 57.1302 20.941 59.9015 18.9755C61.2764 18.0037 62.8452 17.2755 64.608 16.7863C64.6095 16.6836 64.6095 16.5794 64.6095 16.4745C64.6095 11.6518 63.4736 8.05984 61.1931 5.71499C58.9233 3.3616 55.5896 2.18582 51.2148 2.18582C50.1435 2.18582 48.7469 2.22719 47.0389 2.31175L38.072 33.5579C37.3955 35.8911 37.0622 37.3407 37.0622 37.898C37.0622 38.2233 37.1664 38.5382 37.3852 38.855C37.5923 39.1583 37.8843 39.359 38.2491 39.4632C38.7797 39.6522 39.6341 39.7474 40.8096 39.7474C44.0088 39.7474 46.9774 39.4102 49.7055 38.7389C52.4452 38.0769 54.6843 37.0889 56.4336 35.7755C57.5251 34.9377 58.5165 33.9626 59.4138 32.8499ZM45.271 57.2849H46.7571C47.6257 55.7357 48.8315 54.9511 50.3706 54.9511C51.0537 54.9511 51.8962 55.1006 52.913 55.3894C55.8981 56.2234 58.0671 56.7488 59.4322 56.966C60.7838 57.1752 62.2567 57.2849 63.8221 57.2849C66.981 57.2849 69.8999 56.769 72.5636 55.7458C75.2265 54.7124 77.2748 53.2644 78.7076 51.3971C80.1254 49.5216 80.8355 47.5848 80.8355 45.5896C80.8355 43.8234 80.2599 42.1649 79.1092 40.6061C77.9564 39.0388 75.4274 36.8745 71.5205 34.0836C69.661 32.7635 68.124 31.6175 66.9063 30.6457C67.9362 29.1583 68.8602 27.2624 69.6913 24.9542C70.4688 22.7963 70.9234 20.5808 71.0506 18.3187C71.2265 18.3122 71.4057 18.3107 71.5867 18.3107C75.0127 18.3107 77.7707 19.0549 79.8586 20.5544C81.9466 22.0439 82.9913 23.9589 82.9913 26.3108C82.9913 27.0273 82.9368 27.9688 82.8421 29.1314H84.1674L88.2502 16.0468H86.7643C86.0294 16.9903 85.3858 17.6156 84.8374 17.9026C84.2881 18.1915 83.6334 18.3404 82.8835 18.3404C82.4276 18.3404 82.026 18.3107 81.6645 18.2509C81.5039 18.2111 80.6747 17.9722 79.1487 17.5261C77.0064 16.8709 75.535 16.4732 74.7176 16.3635C73.5667 16.1714 72.3425 16.0716 71.0643 16.0501C70.9167 13.2209 70.1138 10.5541 68.6711 8.04846C67.0677 5.27384 64.9113 3.23567 62.2132 1.94378C59.5268 0.651893 55.3824 0 49.7887 0H36.5709L36.2079 1.14605H36.8727C38.425 1.14605 39.4567 1.35654 39.9876 1.78631C40.5198 2.21737 40.7802 2.83745 40.7802 3.63519C40.7802 4.75977 40.498 6.32499 39.926 8.3104L32.6042 33.5579C31.8745 36.1652 31.2076 37.898 30.6242 38.7606C30.2392 39.3471 29.6354 39.82 28.8232 40.1784C28.2708 40.4205 27.1975 40.5681 25.5841 40.6074L25.1893 41.7436H42.7056C46.9342 41.7436 50.4652 41.3028 53.2993 40.4086C56.1204 39.5164 58.7453 38.1281 61.1618 36.2694C61.6063 35.9263 62.0309 35.5893 62.4338 35.256L62.523 35.3261C67.8649 39.3755 71.1437 42.205 72.3627 43.8136C73.1785 44.9046 73.5799 46.1073 73.5799 47.4273C73.5799 49.4619 72.696 51.258 70.9167 52.817C69.1368 54.3758 66.5401 55.1603 63.1136 55.1603C59.4321 55.1603 56.4336 54.3259 54.1583 52.6595C51.8698 50.9912 50.7189 48.8268 50.7189 46.1768C50.7189 45.2431 50.8117 44.0722 50.9992 42.6526H49.6607L45.271 57.2849ZM38.3756 45.9563H38.2359V47.4666H39.9227V45.9563H38.3756ZM28.6122 45.986H28.4731V47.4372H30.0587V45.986H28.6122ZM38.3789 54.7505H38.2411V56.182H39.926V54.7505H38.3789ZM28.6173 54.7608H28.4795V56.2068H30.0587V54.7608H28.6173ZM67.7356 63.5253H67.5978V64.97H69.1769V63.5253H67.7356ZM57.8879 63.5765H57.7508V65.0225H59.3292V63.5765H57.8879ZM48.1485 63.5535H48.0089V64.9995H49.5878V63.5535H48.1485ZM38.4366 63.5667H38.299V65.0127H39.8779V63.5667H38.4366ZM28.6173 63.4506H28.4795V64.8966H30.0587V63.4506H28.6173ZM19.4978 63.5121H19.3582V64.9581H20.9387V63.5121H19.4978ZM19.4978 54.7608H19.3582V56.2068H20.9387V54.7608H19.4978ZM19.4978 45.9229H19.3582V47.3689H20.9387V45.9229H19.4978ZM19.4978 37.2114H19.3582V38.6574H20.9387V37.2114H19.4978ZM19.4846 28.4136H19.3468V29.8611H20.9242V28.4136H19.4846ZM19.4978 19.6636H19.3582V21.1096H20.9387V19.6636H19.4978ZM26.0121 15.4432H13.8891V69.2005H73.9631V58.4074H75.7737V71.0131H12.0764C12.0744 51.8848 12.0764 32.7588 12.0764 13.6305H26.0121V15.4432ZM78.1723 61.1453H81.5668V63.8883H87.9419V64.5286H81.5668V67.2714H78.0327V61.1453H78.1723ZM65.142 72.8437H71.7954V76.0444H68.719V81.7563H68.0792V76.0444H65.0044V72.8437H65.142ZM55.3706 72.8437H62.0224V76.0444H58.9481V81.7563H58.3091V76.0444H55.2327V72.8437H55.3706ZM45.5997 72.8437H52.2528V76.0444H49.1767V81.7563H48.5364V76.0444H45.4618V72.8437H45.5997ZM35.828 72.8437H42.4801V76.0444H39.405V81.7563H38.7668V76.0444H35.6904V72.8437H35.828ZM26.0566 72.8437H32.7105V76.0444H29.6341V81.7563H28.9938V76.0444H25.919V72.8437H26.0566ZM16.2857 72.8437H22.9391V76.0444H19.8627V81.7563H19.2224V76.0444H16.1479V72.8437H16.2857ZM6.51427 61.1453H9.90872V67.2714H6.37645V64.5286H0V63.8883H6.37645V61.1453H6.51427ZM6.51427 52.3707H9.90872V58.4971H6.37645V55.754H0V55.1153H6.37645V52.3707H6.51427ZM6.51427 43.5977H9.90872V49.7241H6.37645V46.9792H0V46.3408H6.37645V43.5977H6.51427ZM6.51427 34.8234H9.90872V40.9493H6.37645V38.2062H0V37.5665H6.37645V34.8234H6.51427ZM6.51427 26.0504H9.90872V32.175H6.37645V29.4319H0V28.7916H6.37645V26.0504H6.51427ZM6.51427 17.2756H9.90872V23.4001H6.37645V20.6571H0V20.0186H6.37645V17.2756H6.51427ZM19.2224 8.50124V2.78961H19.8627V8.50124H22.9391V11.7017H22.7997H16.1479V8.50124H19.2224Z" fill="#255BB1"/>
</svg>
