<svg width="153" height="42" viewBox="0 0 153 42" fill="none" xmlns="http://www.w3.org/2000/svg">
<g clip-path="url(#clip0_38_54)">
<path d="M44.5001 21.0001C44.5001 19.5001 44.5001 19.5001 45.7001 19.5001H47.6001V14.7001L44.7001 14.6001C40.8001 14.6001 38.8001 16.5001 38.8001 20.3001V21.2001H36.1001V25.6001H38.7001V40.4001H44.5001V25.6301H47.7001V21.2301H44.5001V21.0001Z" fill="#265A8E"/>
<path d="M82.9002 16.3301H77.1002V21.1301H74.7002V25.5301H77.1002V36.1301C77.1002 38.4301 77.7002 40.5301 82.5002 40.5301H85.2002L85.8002 40.4301V35.8301L84.3002 35.9301C82.8002 35.9301 82.8002 35.9301 82.8002 35.0301V25.5301H85.7002V21.1301H82.8002V16.3301H82.9002Z" fill="#265A8E"/>
<path d="M24.2 20.8302C23.2435 20.8012 22.2921 20.9802 21.4116 21.3548C20.531 21.7295 19.7423 22.2909 19.1 23.0002V21.2002H13.5V40.5002H19.3V29.5002C19.3 27.2002 20.6 25.8002 22.6 25.8002C25 25.8002 25.2 27.3002 25.2 28.9002V40.5002H31V27.4302C31 23.3302 28.4 20.8302 24.2 20.8302Z" fill="#265A8E"/>
<path d="M64.8001 30.9303C64.8001 33.2303 64.2001 36.0303 60.9001 36.0303C57.6001 36.0303 57.0001 33.3303 57.0001 30.9303C57.0001 28.5303 57.6001 25.8303 60.9001 25.8303C64.2001 25.8303 64.8001 28.6303 64.8001 30.9303ZM60.9001 20.8303C56.4001 20.8303 51.1001 23.4303 51.1001 30.9303C51.1001 38.4303 56.4001 41.0003 60.9001 41.0003C65.4001 41.0003 70.7001 38.4003 70.7001 30.9003C70.7001 23.4003 65.4001 20.8003 60.9001 20.8003" fill="#265A8E"/>
<path d="M99.1004 25.7301C99.8751 25.7195 100.625 26.0022 101.2 26.5215C101.775 27.0408 102.132 27.7583 102.2 28.5301H96.0004C96.4004 26.7301 97.4004 25.7301 99.1004 25.7301ZM99.2004 20.8301C90.4004 20.8301 89.9004 28.9301 89.9004 30.5301C89.9004 37.3301 93.2004 41.0301 99.5004 41.0301C101.414 41.1303 103.303 40.5686 104.851 39.4395C106.399 38.3104 107.511 36.6827 108 34.8301L108.1 34.2301H102.2L102.1 34.5301C101.91 35.0574 101.554 35.5085 101.085 35.8152C100.616 36.122 100.06 36.2676 99.5004 36.2301C96.4004 36.2301 95.9004 34.1301 95.7004 32.7301H108.2V31.3301C108.3 21.8301 102 20.8301 99.2004 20.8301Z" fill="#265A8E"/>
<path d="M122.1 25.83C124.1 25.73 124.6 27.33 124.8 28.33L124.9 28.73H130.7L130.6 28.23C130.2 22.63 126 20.73 122.1 20.73C116.2 20.73 112.8 24.53 112.8 31.33C112.8 33.53 113.4 40.93 121.7 40.93C128.1 40.93 130.3 36.13 130.5 33.33V32.83H124.6V33.33C124.583 34.0405 124.292 34.717 123.79 35.2195C123.287 35.7221 122.611 36.0122 121.9 36.03C119.1 36.03 118.7 33.33 118.7 30.53C118.8 29.53 119 25.83 122.1 25.83Z" fill="#265A8E"/>
<path d="M145.1 28.13C143.3 27.83 141.5 27.43 141.5 26.63C141.5 26.23 141.5 25.33 143.9 25.33C146.3 25.33 146.5 26.43 146.6 27.33L146.7 27.73H152.4L152.3 27.23C152 22.93 149.1 20.73 143.7 20.73C137.9 20.73 135.8 24.13 135.8 27.33C135.8 31.73 140.2 32.73 143.5 33.33C145.4 33.63 147.2 34.03 147.2 34.93C147.2 35.53 146.5 36.33 144.6 36.33C141.5 36.33 141.1 35.03 141.1 34.13V33.63H135.2V34.13C135.3 38.43 138.7 40.93 144.5 40.93C148.6 40.93 153 39.13 153 34.13C153 29.73 148.4 28.83 145.1 28.13Z" fill="#265A8E"/>
<path d="M6.0002 21.23H0.700195V40.53H6.5002V21.23H6.0002Z" fill="#265A8E"/>
<path d="M15.2002 10.4301C14.6983 10.4871 14.1902 10.4532 13.7002 10.3301C13.2188 10.2409 12.7735 10.014 12.4185 9.6767C12.0635 9.33944 11.814 8.90641 11.7002 8.43013C11.5766 7.89499 11.5946 7.33686 11.7524 6.81078C11.9102 6.2847 12.2024 5.80885 12.6002 5.43013C12.9965 5.13375 13.4347 4.89785 13.9002 4.73013C17.9002 3.33013 26.0002 1.13013 40.0002 0.230132C49.2237 -0.334054 58.4813 0.135534 67.6002 1.63013C72.3325 2.38607 77.0095 3.45509 81.6002 4.83013C85.9002 6.13013 87.5002 7.03013 87.3002 7.83013C87.1002 8.63013 84.9002 8.33013 81.7002 7.83013C79.2002 7.43013 73.0002 6.53013 66.9002 5.93013C58.1246 5.03615 49.2825 5.00266 40.5002 5.83013C31.9664 6.74683 23.5106 8.28424 15.2002 10.4301Z" fill="#C94C36"/>
<path d="M0.000145842 12.2303C0.0130831 13.181 0.396521 14.0892 1.06887 14.7616C1.74122 15.4339 2.64939 15.8173 3.60015 15.8303C4.07327 15.8316 4.542 15.7394 4.97937 15.5589C5.41673 15.3785 5.81412 15.1134 6.14867 14.7788C6.48323 14.4442 6.74835 14.0469 6.9288 13.6095C7.10925 13.1721 7.20147 12.7034 7.20015 12.2303C7.20822 11.2638 6.83469 10.3331 6.16066 9.64032C5.48663 8.94756 4.56652 8.54868 3.60015 8.53027C3.11925 8.53146 2.64343 8.62871 2.20064 8.81633C1.75785 9.00394 1.357 9.27814 1.02164 9.62281C0.686285 9.96749 0.423172 10.3757 0.247756 10.8235C0.0723397 11.2712 -0.0118448 11.7495 0.000145842 12.2303Z" fill="#C94C36"/>
</g>
<defs>
<clipPath id="clip0_38_54">
<rect width="153" height="41.03" fill="white"/>
</clipPath>
</defs>
</svg>
