<svg width="211" height="58" viewBox="0 0 211 58" fill="none" xmlns="http://www.w3.org/2000/svg">
<g clip-path="url(#clip0_38_77)">
<path d="M103.49 46.2866H104.812L111.464 55.5439V46.2866H112.608V57.4747H111.524L104.634 47.9926V57.4747H103.49V46.2866Z" fill="#61849C"/>
<path d="M115.458 46.2866H122.844V47.4173H116.648V51.107H122.692V52.2377H116.648V56.3837H122.904V57.4681H115.458V46.2866Z" fill="#61849C"/>
<path d="M128.828 47.4372H124.636V46.2866H134.231V47.4173H130.039V57.4747H128.848L128.828 47.4372Z" fill="#61849C"/>
<path d="M135.652 46.2866H136.876L139.812 55.5439L142.827 46.2866H143.852L146.794 55.5439L149.75 46.2866H150.894L147.31 57.5276H146.285L143.296 48.2703L140.294 57.5276H139.256L135.652 46.2866Z" fill="#61849C"/>
<mask id="mask0_38_77" style="mask-type:luminance" maskUnits="userSpaceOnUse" x="0" y="0" width="214" height="59">
<path d="M0 58.2812H213.268V0H0V58.2812Z" fill="white"/>
</mask>
<g mask="url(#mask0_38_77)">
<path d="M162.042 51.9002C162.042 48.885 160.641 47.2716 157.599 47.2716C154.557 47.2716 153.182 48.8982 153.182 51.9002C153.182 54.9022 154.571 56.5288 157.599 56.5288C160.627 56.5288 162.042 54.9022 162.042 51.9002ZM151.992 51.9002C151.992 47.9328 154.028 46.1475 157.599 46.1475C161.17 46.1475 163.233 47.9262 163.233 51.9002C163.233 55.8742 161.183 57.6728 157.599 57.6728C154.015 57.6728 151.992 55.8941 151.992 51.9002Z" fill="#61849C"/>
<path d="M170.499 51.8405C172.08 51.8405 173.058 51.3578 173.058 49.5923C173.058 47.8268 172.113 47.4036 170.453 47.4036H166.823V51.8405H170.499ZM170.169 52.9249H166.823V57.4742H165.659V46.2861H170.486C173.078 46.2861 174.255 47.3243 174.255 49.5394C174.255 51.4702 173.33 52.6009 171.385 52.8456L174.083 57.4742H172.82L170.169 52.9249Z" fill="#61849C"/>
<path d="M180.173 51.576L177.945 54.016V57.5007H176.781V46.2861H177.945V52.4488L183.599 46.2861H184.967L180.96 50.6701L185.51 57.4544H184.187L180.173 51.576Z" fill="#61849C"/>
<path d="M186.508 56.3436L187.11 55.4377C188.293 56.1945 189.672 56.5876 191.077 56.5684C193.378 56.5684 194.383 55.9072 194.383 54.3863C194.383 52.8655 193.061 52.5745 191.077 52.2175C188.663 51.7943 187.037 51.3843 187.037 49.1229C187.037 46.9673 188.419 46.1275 191.077 46.1275C192.443 46.0598 193.798 46.4054 194.965 47.1193L194.304 48.0847C193.337 47.5018 192.226 47.1995 191.097 47.2119C189.113 47.2119 188.234 47.7674 188.234 49.0964C188.234 50.4255 189.391 50.7826 191.381 51.1463C193.821 51.5827 195.587 51.9397 195.587 54.34C195.587 56.5552 194.172 57.6462 191.123 57.6462C189.486 57.6976 187.872 57.2503 186.495 56.3634" fill="#61849C"/>
<path d="M207.271 0.151855C191.566 0.151855 190.898 7.18078 190.898 17.1059V41.4724H194.601V17.1059C194.601 9.62735 194.31 3.62995 207.271 3.62995C208.517 3.62447 209.762 3.69292 211 3.83493V0.303939C209.856 0.204754 208.62 0.151855 207.271 0.151855Z" fill="#231F20"/>
<path d="M24.1484 25.6228V0.965332H27.9241V25.6955C27.9241 32.8038 27.8514 38.8078 40.8843 38.8078C53.9172 38.8078 53.5602 32.8038 53.5602 25.3252V0.965332H57.2631V25.3252C57.2631 35.2437 56.6018 42.2859 40.8975 42.2859C25.1932 42.2859 24.1484 35.2504 24.1484 25.6228Z" fill="#231F20"/>
<path d="M96.62 16.8084V41.4724H92.8443V16.7356C92.8443 9.62735 92.917 3.62995 79.8841 3.62995C66.8512 3.62995 67.2215 9.62735 67.2215 17.1059V41.4724H63.5186V17.1059C63.5186 7.18739 64.1798 0.151855 79.8841 0.151855C95.5884 0.151855 96.62 7.18078 96.62 16.8084Z" fill="#231F20"/>
<path d="M103.49 1.03125H107.12V41.4591H103.49V1.03125Z" fill="#231F20"/>
<path d="M132.908 23.8044C139.448 23.8044 142.701 20.6172 142.701 14.1768C142.701 7.73639 139.17 4.66826 132.73 4.66826H117.521V23.8044H132.908ZM113.904 1.03809H132.835C142.218 1.03809 146.477 5.7064 146.477 13.9983C146.477 22.2902 142.278 27.4214 132.783 27.4214H117.528V41.4726H113.904V1.03809Z" fill="#231F20"/>
</g>
<mask id="mask1_38_77" style="mask-type:luminance" maskUnits="userSpaceOnUse" x="0" y="0" width="211" height="58">
<path d="M0.0200195 57.6531H210.994V0H0.0200195V57.6531Z" fill="white"/>
</mask>
<g mask="url(#mask1_38_77)">
<path d="M154.398 18.3625H181.946C181.575 10.2954 181.059 3.40536 169.276 3.40536C157.949 3.40536 154.835 9.55484 154.392 18.3625M150.689 21.1066C150.689 9.20439 154.094 0 169.356 0C185.146 0 185.648 10.5798 185.576 21.7678H154.326C154.398 31.6202 156.845 38.9599 169.653 38.9599C176.471 38.9599 179.572 37.1085 182.911 34.6685L184.981 37.406C181.278 40.1436 176.914 42.2926 169.653 42.2926C153.658 42.2926 150.696 33.0353 150.696 21.1331" fill="#231F20"/>
<path d="M1.40843 50.2538C17.1061 50.2538 17.774 43.2182 17.774 33.2931V0.965332H14.0711V33.2865C14.0711 40.7651 14.3686 46.7625 1.40843 46.7625C0.919116 46.7625 0.456252 46.7625 0 46.7625V50.2538C0.440823 50.2538 0.9103 50.2538 1.40843 50.2538Z" fill="#231F20"/>
</g>
<mask id="mask2_38_77" style="mask-type:luminance" maskUnits="userSpaceOnUse" x="0" y="0" width="214" height="59">
<path d="M0 58.2812H213.268V0H0V58.2812Z" fill="white"/>
</mask>
<g mask="url(#mask2_38_77)">
<path d="M202.708 36.8636C202.267 36.8636 201.836 36.9943 201.47 37.2391C201.103 37.484 200.818 37.832 200.649 38.2392C200.481 38.6464 200.436 39.0944 200.522 39.5267C200.608 39.959 200.821 40.356 201.132 40.6676C201.444 40.9793 201.841 41.1915 202.273 41.2775C202.705 41.3635 203.153 41.3194 203.561 41.1507C203.968 40.982 204.316 40.6964 204.561 40.33C204.806 39.9635 204.936 39.5327 204.936 39.092C204.935 38.5015 204.699 37.9357 204.282 37.5182C203.864 37.1007 203.298 36.8653 202.708 36.8636ZM202.708 41.6443C202.201 41.6443 201.706 41.4941 201.286 41.2126C200.865 40.9311 200.537 40.5311 200.343 40.0631C200.15 39.5951 200.099 39.0803 200.199 38.5837C200.298 38.0871 200.542 37.6312 200.901 37.2735C201.259 36.9159 201.716 36.6727 202.213 36.5747C202.71 36.4767 203.224 36.5284 203.692 36.7231C204.159 36.9178 204.558 37.2468 204.839 37.6685C205.119 38.0902 205.268 38.5856 205.267 39.092C205.268 39.4286 205.202 39.762 205.074 40.0733C204.946 40.3845 204.757 40.6674 204.52 40.9057C204.282 41.144 204 41.3331 203.689 41.4621C203.378 41.5911 203.045 41.6576 202.708 41.6576" fill="#231F20"/>
<path d="M202.999 39.0655C203.402 39.0655 203.66 38.9465 203.66 38.5167C203.66 38.0869 203.435 37.9943 202.999 37.9943H202.099V39.0655H202.999ZM202.906 39.4292H202.086V40.5599H201.676V37.624H202.999C203.739 37.624 204.03 37.9282 204.03 38.5101C204.042 38.6156 204.033 38.7225 204.004 38.8245C203.974 38.9266 203.925 39.0218 203.859 39.1047C203.792 39.1877 203.71 39.2567 203.617 39.3078C203.524 39.359 203.422 39.3912 203.316 39.4027L203.977 40.5599H203.554L202.906 39.4292Z" fill="#231F20"/>
</g>
</g>
<defs>
<clipPath id="clip0_38_77">
<rect width="211" height="57.6531" fill="white"/>
</clipPath>
</defs>
</svg>
