<svg width="242" height="54" viewBox="0 0 242 54" fill="none" xmlns="http://www.w3.org/2000/svg">
<g clip-path="url(#clip0_38_67)">
<path fill-rule="evenodd" clip-rule="evenodd" d="M14.8972 53.4818H14.4986L14.1001 53.4533H6.96818L0.185059 52.6277L0 39.5098L5.77241 38.3425L8.03582 46.535L8.67641 47.9443L9.12482 48.2645L9.63018 48.6133L10.1142 48.9336L10.3775 49.0902L10.6195 49.197L10.8829 49.3607L11.1462 49.4674L11.4167 49.5671L11.6801 49.6738L11.9434 49.7877L12.4772 49.9158L12.7691 49.9941L13.0395 50.0511L13.3029 50.0795L13.5662 50.1009L13.8652 50.1578H14.157H14.4204L15.1677 50.1294L15.5094 50.1009L15.8581 50.0795L16.1784 50.0226L16.819 49.8874L17.0824 49.8091L17.3457 49.7023L17.6162 49.624L17.8795 49.4888L18.1215 49.3607L18.5699 49.0902L18.7835 48.9336L18.9685 48.7414L19.1607 48.5848L19.3173 48.3713L19.6091 47.9443L19.7444 47.7378L19.9792 47.2254L20.0646 46.962L20.1714 46.6702L20.2212 46.4068L20.2995 46.115L20.4063 45.4744L20.4348 45.1257L20.4632 44.4068L20.4348 44.0367L20.4063 43.6665L20.3565 43.3178L20.2711 42.969L20.1928 42.6487L20.0646 42.3569L19.9294 42.0651L19.7657 41.8017L19.6091 41.5597L19.4241 41.2964L19.2105 41.0828L18.9685 40.8408L18.7336 40.6273L18.4916 40.4138L17.9578 40.0437L17.6162 39.8301L17.2674 39.6451L16.9471 39.46L16.577 39.3034L16.2282 39.1397L15.8581 38.9831L15.488 38.8194L15.0894 38.6842L14.6837 38.5561L14.2638 38.3924L13.8082 38.2358L13.3598 38.0721L12.8758 37.887L12.3491 37.7304L11.8153 37.5169L10.7192 37.1468L10.1925 36.9333L9.65865 36.7482L9.18176 36.556L8.69776 36.3425L8.22088 36.1361L7.79382 35.951L7.39524 35.7304L6.96818 35.524L6.56959 35.282L6.14253 34.9901L5.74394 34.6983L5.324 34.3495L4.89694 34.0079L4.44141 33.6022L4.02147 33.1822L3.67271 32.805L3.32394 32.3851L2.98229 31.9295L2.69047 31.5025L2.37018 31.0256L2.09971 30.5203L1.86482 30.0149L1.62282 29.4526L1.51606 29.1892L1.40929 28.9259L1.331 28.627L1.22424 28.3351L1.089 27.723L1.01071 27.4027L0.960882 27.0895L0.825647 26.0717L0.747353 25.3813V25.0112L0.718882 24.6624V23.9222L0.747353 23.2531L0.768706 22.9115L0.825647 22.5912L0.854118 22.2709L1.03918 21.31L1.19576 20.6979L1.28118 20.4061L1.48759 19.794L1.59435 19.5306L1.70112 19.2388L1.83635 18.9683L1.97159 18.705L2.09971 18.4131L2.29188 18.1427L2.42 17.8793L2.58371 17.6444L2.76876 17.374L2.95382 17.1106L3.13888 16.8686L3.53747 16.3917L3.751 16.1782L4.20653 15.7013L4.68341 15.2742L5.18876 14.8472L5.69412 14.4771L6.24929 14.1283L6.81159 13.7795L7.39524 13.4664L7.986 13.1674L8.61947 12.9325L9.23159 12.6905L9.90065 12.477L10.5911 12.3204L11.2815 12.1567L11.9719 12.05L12.7192 11.9503L13.4879 11.8934L14.2638 11.8364H15.0325H15.7798L27.8015 12.7688L29.0258 24.3991L23.1751 25.5735L20.8618 18.6267L19.7657 16.1782L19.3742 15.9647L18.9685 15.8081L18.5984 15.6444L18.1998 15.5376L17.8297 15.4308L17.4311 15.3241L17.0254 15.2742L16.6268 15.2458L16.2069 15.2173L15.5948 15.2742H15.2745L14.7122 15.3525L14.4204 15.4024L14.157 15.4878L13.915 15.5376L13.4381 15.7227L13.1961 15.8294L12.9541 15.9362L12.7691 16.0714L12.5555 16.2067L12.1569 16.4985L11.9719 16.6551L11.8153 16.8188L11.6801 17.0038L11.5235 17.1889L11.3882 17.374L11.2815 17.5875L11.1747 17.801L11.0679 18.0145L10.9896 18.2281L10.9114 18.463L10.8259 18.705L10.7476 19.2103L10.7192 19.4737L10.6978 19.7441V20.3847L10.7192 20.7548L10.7761 21.0751L10.8259 21.4168L10.9114 21.7371L10.9896 22.0289L11.0964 22.3207L11.3598 22.8545L11.5448 23.125L11.7085 23.3599L11.9221 23.6019L12.1356 23.8154L12.3491 24.0005L12.584 24.1855L12.8474 24.3706L13.4096 24.7194L14.0502 25.0112L14.7122 25.36L15.4311 25.6731L16.2069 25.965L17.0539 26.2852L17.9365 26.6055L18.8618 26.8974L19.6091 27.1394L20.328 27.3814L21.0184 27.6162L21.659 27.8867L22.2996 28.1785L22.9117 28.4419L23.4954 28.7337L24.0505 29.054L24.5844 29.3743L25.0897 29.6946L25.5666 30.0363L26.0506 30.385L26.4776 30.7338L26.8976 31.1039L27.2748 31.474L27.6449 31.8797L27.9652 32.2783L28.2855 32.6769L28.5774 33.0968L28.8407 33.5524L29.3247 34.4563L29.5098 34.9332L29.6948 35.4385L29.8799 35.951L30.0151 36.4493L30.1219 37.0115L30.2286 37.5454L30.3069 38.1005L30.3568 38.6842L30.3852 39.275V39.8871V40.2857L30.3568 41.0544L30.3354 41.453L30.2785 41.8302L30.25 42.2003L30.1717 42.5704L30.1219 42.9477L29.9866 43.6381L29.8799 43.9797L29.8016 44.3285L29.6664 44.6488L29.5596 44.9904L29.4528 45.3107L29.1895 45.9513L29.0258 46.2431L28.8692 46.535L28.7055 46.8268L28.3638 47.4175L28.1788 47.6809L27.9652 47.9443L27.5666 48.4781L27.1111 48.9834L26.8762 49.2254L26.3709 49.6738L26.1004 49.9158L25.5666 50.3429L25.2748 50.5564L24.9829 50.7415L24.6911 50.955L23.7872 51.4888L23.4954 51.6454L23.1466 51.7807L22.8548 51.9373L22.5131 52.101L21.8441 52.3643L21.1536 52.5778L20.4348 52.7914L19.7159 52.9764L18.9685 53.133L18.1998 53.2682L17.4026 53.3465L16.6055 53.432L15.7514 53.4818H14.8972Z" fill="#1B1464"/>
<path fill-rule="evenodd" clip-rule="evenodd" d="M91.7748 50.5282L91.241 50.82L90.6787 51.0905L90.1235 51.3538L89.5613 51.6172L88.9776 51.8592L88.394 52.1012L87.8032 52.3361L87.1911 52.5781L86.8992 52.6848L86.5576 52.7916L86.2373 52.8699L85.5683 53.0549L85.2266 53.1332L84.8494 53.1902L84.4793 53.2471L83.739 53.3468L82.9347 53.4322L82.1091 53.482H80.6215L80.0094 53.4322L79.3973 53.3752L78.8136 53.2969L78.2798 53.1902L77.7246 53.0549L77.2193 52.8984L76.7139 52.7133L76.2584 52.5211L75.8028 52.2862L75.3829 52.0158L74.9558 51.7524L74.5786 51.4606L74.0234 50.9552L73.8668 50.7915L73.6747 50.6065L73.5465 50.3929L73.2263 49.9944L72.9344 49.5958L72.664 49.1687L72.1871 48.2363L72.002 47.7381L71.817 47.2256L71.6533 46.6704L71.4967 46.1152L71.3614 45.5529L71.2547 44.9408L71.1764 44.3287L71.0981 43.6881L71.0411 43.0262L71.0198 42.3571V41.6454V16.8688H65.0054V11.8936L65.9591 11.7085L67.582 11.4665L69.7101 10.7761L71.5465 9.81524L73.1693 8.14259L74.5573 5.98594L75.4897 3.85776L76.2014 1.97159L76.7139 0H82.4578V11.8936H92.9706V16.7336H82.5077L82.4578 43.9586L82.6714 44.5422L82.7781 44.8625L83.0201 45.4462L83.1198 45.6882L83.2835 45.9231L83.4401 46.1651L83.6038 46.3501L83.7888 46.5636L83.9739 46.7487L84.1874 46.9124L84.4294 47.0405L84.6643 47.1758L84.9063 47.2825L85.1697 47.3893L85.4401 47.4676L86.0523 47.5743L86.3441 47.6242L86.6857 47.6526H87.5114L87.8032 47.6242H88.1021L88.4153 47.6028L88.7641 47.5743L89.1342 47.5245L89.91 47.4676L90.2801 47.4178L90.6004 47.3893L90.8922 47.3324L91.1556 47.2825L91.3976 47.2541L91.6111 47.1758L91.7748 47.1188V50.5282Z" fill="#1B1464"/>
<path fill-rule="evenodd" clip-rule="evenodd" d="M163.585 12.029L164.567 23.8158L158.851 25.04L156.403 17.9366L155.976 17.9864L155.286 18.0149L154.46 18.0647L153.741 18.1715L153.342 18.2284L152.972 18.3067L152.567 18.4135L152.168 18.5487L151.748 18.7338L151.342 18.9473L150.944 19.1822L150.495 19.474L150.097 19.8228L149.698 20.1431L149.271 20.5132L148.901 20.9118L148.524 21.3388L148.182 21.7944L147.833 22.2428L147.513 22.7481V45.5246V45.8734L147.542 46.1652L147.591 46.4855L147.648 46.7773L147.727 47.0407L147.784 47.3111L147.969 47.788L148.097 47.9731L148.367 48.3717L148.524 48.5567L148.709 48.7204L148.901 48.877L149.321 49.119L149.534 49.2258L149.776 49.3325L150.068 49.4108L150.389 49.5176L150.737 49.5959L151.079 49.7027L151.905 49.8379L152.275 49.8877L152.595 49.9447L152.915 49.9945L153.207 50.0514L153.449 50.0799L153.691 50.1013L153.876 50.1297V53.0835H131.548V50.1297L131.975 50.0514L132.402 50.023L132.801 49.9447L133.249 49.8877L133.655 49.8094L134.025 49.7027L134.367 49.6244L134.687 49.4891L134.958 49.3824L135.192 49.2543L135.385 49.0905L135.591 48.934L135.755 48.7418L135.911 48.5567L136.047 48.3432L136.153 48.1368L136.338 47.6243L136.417 47.3325L136.445 47.0407L136.502 46.7204L136.523 46.4072L136.552 45.6598V21.9011V21.5239L136.474 20.8335L136.417 20.5132L136.338 20.1715L136.232 19.8726L136.125 19.5594L135.99 19.2676L135.833 18.9687L135.698 18.7053L135.541 18.4633L135.356 18.2284L135.192 17.9864L135.007 17.7729L134.822 17.5878L134.609 17.4028L134.474 17.2675L134.317 17.1608L133.947 16.9473L133.762 16.8405L133.335 16.6839L133.093 16.5771L132.637 16.4419L132.132 16.3138L131.626 16.207L131.071 16.1501V13.1678L147.008 12.1073L147.513 12.7194V18.627H147.648L147.912 18.2284L148.232 17.8298L148.495 17.4526L148.794 17.0825L149.698 16.0433L150.011 15.723L150.31 15.4027L151.243 14.5273L151.556 14.2639L151.876 13.9934L152.196 13.7585L152.517 13.5165L152.837 13.2745L153.499 12.876L153.819 12.6909L154.168 12.5343L154.51 12.3706L155.15 12.1073L155.499 12.0005L156.189 11.8154L156.88 11.7087L157.229 11.6802L157.57 11.6517L157.919 11.6304L158.289 11.6517L163.585 12.029Z" fill="#1B1464"/>
<path fill-rule="evenodd" clip-rule="evenodd" d="M200.76 12.3991L201.743 24.1859L196.02 25.4101L193.571 18.3067L193.144 18.3565L192.454 18.385L191.628 18.4633L190.917 18.5487L190.511 18.5985L190.141 18.6768L189.742 18.7836L189.344 18.9188L188.917 19.1039L188.518 19.3174L188.119 19.5594L187.664 19.8513L187.265 20.1929L186.838 20.5132L186.44 20.9118L186.069 21.289L185.699 21.7161L185.351 22.1645L185.009 22.6414L184.689 23.1254V45.9232V46.2435L184.71 46.5638L184.767 46.8556L184.817 47.1474L184.874 47.4464L184.952 47.6812L185.137 48.1581L185.244 48.3432L185.536 48.7702L185.699 48.934L185.856 49.119L186.069 49.2542L186.468 49.5176L186.71 49.5959L186.945 49.7027L187.244 49.8094L187.557 49.8877L187.906 49.9945L188.255 50.0799L189.052 50.208L189.422 50.2863L189.771 50.3433L190.084 50.3931L190.383 50.4215L190.618 50.45L190.86 50.4785L191.045 50.4998V53.4821H168.724V50.4998L169.144 50.45L169.571 50.3931L169.969 50.3433L170.425 50.2863L170.823 50.1795L171.194 50.1012L171.542 49.9945L171.863 49.8664L172.126 49.7596L172.368 49.6244L172.553 49.4678L172.767 49.3041L172.923 49.119L173.087 48.934L173.215 48.7204L173.322 48.5069L173.507 48.0015L173.592 47.7097L173.621 47.4179L173.671 47.0976L173.699 46.7773L173.72 46.03V22.2713V21.9011L173.642 21.2036L173.592 20.8904L173.507 20.5701L173.407 20.2498L173.3 19.9295L173.165 19.6377L173.001 19.3459L172.873 19.1039L172.688 18.8405L172.525 18.5985L172.368 18.3565L172.183 18.1715L171.991 17.958L171.784 17.7729L171.649 17.6448L171.485 17.5309L171.115 17.3245L170.93 17.2391L170.503 17.054L170.261 16.9473L169.813 16.8191L169.307 16.6839L168.802 16.6056L168.24 16.5202V13.545L184.176 12.4774L184.689 13.0895V18.9971H184.817L185.087 18.5985L185.408 18.2L185.671 17.8298L185.963 17.4526L186.867 16.4205L187.187 16.1003L187.479 15.78L188.411 14.8974L188.731 14.634L189.052 14.3707L189.372 14.1287L189.685 13.8867L190.006 13.6518L190.675 13.2532L190.995 13.061L191.337 12.9044L191.685 12.7478L192.319 12.4774L192.668 12.3706L193.358 12.1855L194.048 12.0788L194.397 12.0503L194.717 12.029L195.088 12.0005L195.465 12.029L200.76 12.3991Z" fill="#1B1464"/>
<path fill-rule="evenodd" clip-rule="evenodd" d="M129.285 42.5706L128.993 43.1329L128.673 43.6596L128.36 44.2219L128.011 44.7557L127.641 45.2824L127.264 45.8163L126.893 46.3216L126.466 46.8056L126.039 47.311L125.619 47.7594L125.164 48.2363L124.708 48.6633L124.231 49.0904L123.726 49.489L123.221 49.8662L122.715 50.2363L122.16 50.6064L121.598 50.9267L121.043 51.247L120.48 51.5673L119.897 51.8307L119.334 52.0727L118.779 52.3147L118.196 52.4997L117.605 52.7061L116.993 52.8414L116.381 52.9766L115.747 53.0834L115.078 53.1901L114.366 53.24H112.302L111.719 53.183H111.135L109.961 53.0763L109.434 52.998L108.872 52.9197L107.811 52.7061L106.765 52.4428L105.775 52.1225L105.341 51.9588L104.864 51.7453L104.409 51.5602L103.982 51.3538L103.533 51.1403L103.106 50.9267L102.708 50.6563L102.281 50.4214L101.512 49.8876L101.135 49.6171L100.793 49.3253L100.416 49.0334L100.074 48.7416L99.7182 48.4L99.3979 48.0797L99.0776 47.7594L98.7645 47.4177L98.494 47.069L98.2022 46.7273L97.9103 46.3501L97.647 46.0084L97.3765 45.6098L97.1416 45.2041L96.8996 44.834L96.4441 44.0084L96.0242 43.1614L95.832 42.7343L95.6469 42.3073L95.4904 41.8304L95.3053 41.3748L95.1416 40.9264L95.0135 40.4424L94.743 39.4887L94.501 38.4993L94.4014 37.994L94.2092 37.0117L94.1309 36.485L94.0811 35.9797L93.9529 34.8764V33.8444L93.896 32.7411V31.218L93.9458 30.2286L94.0028 29.7233L94.0526 29.2464L94.1095 28.7695L94.1878 28.2641L94.2661 27.7801L94.5864 26.3566L94.6932 25.8726L94.8284 25.4242L94.985 24.9473L95.2768 24.0363L95.4619 23.5878L95.6469 23.1323L95.8106 22.7053L96.0242 22.2568L96.2092 21.8298L96.4228 21.4027L96.8783 20.6056L97.1132 20.1785L97.3267 19.8084L97.5901 19.4098L97.8605 19.0397L98.1239 18.6624L98.6862 17.9507L99.2698 17.2389L99.5901 16.9257L99.8819 16.577L100.224 16.2851L100.544 15.9648L100.893 15.673L101.241 15.3812L101.612 15.1107L101.982 14.8189L102.352 14.5556L102.757 14.3136L103.156 14.0787L103.555 13.8367L103.982 13.5947L104.402 13.3811L104.829 13.1676L105.733 12.769L106.188 12.6124L106.637 12.4558L107.121 12.3206L108.074 12.0786L108.53 11.9718L109.035 11.8651L109.541 11.8153L110.551 11.7085H112.146L113.263 11.7583H114.359L115.391 11.8651L116.381 12.0217L116.858 12.1L117.306 12.2067L117.761 12.3135L118.189 12.4487L118.616 12.5555L119.036 12.7121L119.811 13.0324L120.181 13.1961L120.53 13.3811L120.9 13.5662L121.249 13.7797L121.569 13.9933L122.231 14.4203L122.872 14.8687L123.164 15.1107L123.456 15.3741L123.719 15.6161L123.989 15.9079L124.253 16.1713L124.516 16.4702L124.758 16.762L125 17.0538L125.235 17.3172L125.449 17.609L125.662 17.9293L126.061 18.5699L126.409 19.2105L126.594 19.5237L126.73 19.8724L126.915 20.2212L127.05 20.5913L127.178 20.9401L127.42 21.6518L127.555 22.0504L127.769 22.7978L127.925 23.595L128.061 24.3921L128.189 25.168L128.296 25.9936L128.353 26.8121L128.402 27.6378V31.0116H105.847V32.9831L105.896 33.9369L105.975 34.8408L106.06 35.7234L106.188 36.5491L106.323 37.3961L106.459 38.1719L106.644 38.8837L106.829 39.5954L107.042 40.3072L107.284 40.9763L107.412 41.2966L107.548 41.6097L107.683 41.9087L107.811 42.2005L108.103 42.7841L108.295 43.0475L108.423 43.318L108.608 43.5813L108.772 43.8233L108.957 44.0867L109.142 44.3002L109.327 44.5422L109.541 44.7557L109.939 45.1757L110.181 45.3678L110.637 45.738L110.872 45.8946L111.356 46.2148L111.59 46.3786L111.861 46.5067L112.124 46.6134L112.388 46.7487L112.95 46.9622L113.242 47.0405L113.825 47.2256L114.146 47.3038L114.786 47.4106L115.107 47.4676H116.808L117.576 47.4106H117.975L118.352 47.3537L118.722 47.2754L119.092 47.1971L119.441 47.0903L119.79 46.9551L120.502 46.6917L121.214 46.3145L121.534 46.1294L121.883 45.9159L122.808 45.2041L123.1 44.9408L123.712 44.3856L124.274 43.7735L124.537 43.4817L124.829 43.1614L125.071 42.8411L125.335 42.4923L125.605 42.1507L126.082 41.4389L126.559 40.7271L126.666 40.4567L129.299 42.5066L129.285 42.5706ZM116.473 27.6734L116.58 27.5381V23.8939L116.523 23.2818V22.6697L116.466 22.0576L116.388 21.4739L116.331 20.9401L116.224 20.4063L116.146 19.9009L116.039 19.4525L115.911 18.997L115.804 18.5984L115.669 18.15L115.512 17.7229L115.32 17.3243L115.135 16.9756L114.922 16.6268L114.736 16.3136L114.502 16.0431L114.26 15.7798L113.989 15.5663L113.726 15.3812L113.434 15.1961L113.171 15.0894L112.85 14.9826L112.502 14.8972L112.188 14.8474H111.178L110.587 15.004L110.295 15.1107L110.003 15.246L109.74 15.4026L109.498 15.5876L109.235 15.8011L108.993 16.0147L108.751 16.2851L108.516 16.5485L108.302 16.8688L108.089 17.1606L107.904 17.5307L107.69 17.908L107.505 18.3066L107.313 18.7336L107.156 19.182L107.021 19.6589L106.864 20.1643L106.729 20.6981L106.516 21.8725L106.331 23.1466L106.252 23.8583L106.174 24.5701V25.2818L106.117 26.0506V27.6734H116.502H116.473Z" fill="#1B1464"/>
<path fill-rule="evenodd" clip-rule="evenodd" d="M242 51.2968L241.601 51.4889L241.203 51.674L240.804 51.8306L240.377 52.0156L239.922 52.2007L239.018 52.521L238.512 52.6847L238.007 52.8413L237.502 52.9481L236.968 53.0548L236.463 53.1331L235.907 53.2185L235.374 53.2683H233.274L232.341 53.1901L231.914 53.1331L231.516 53.0833L231.089 53.0263L230.719 52.9196L230.348 52.8128L229.637 52.5993L229.316 52.4712L229.025 52.3359L228.733 52.1722L228.469 52.0156L228.227 51.8591L227.993 51.6455L227.537 51.2683L227.323 51.0548L227.11 50.8199L226.953 50.5779L226.583 50.101L226.419 49.8376L226.128 49.2753L225.992 48.9835L225.886 48.6917L225.672 48.0511L225.629 47.6881L225.416 47.4461L224.861 48.3216L224.298 48.9337L223.743 49.4675L223.238 50.0013L222.704 50.4498L222.441 50.6633L222.142 50.8768L221.85 51.0619L221.558 51.2469L221.266 51.4391L220.975 51.5957L220.604 51.8092L219.8 52.2078L219.088 52.5281L218.711 52.6562L218.341 52.7915L217.992 52.8982L217.594 53.005L217.195 53.0619L216.747 53.1402L216.241 53.1901L215.736 53.247H213.473L212.996 53.1972L212.512 53.1402L212.063 53.0904L211.636 52.9836L211.181 52.8769L210.761 52.7416L210.334 52.585L209.935 52.4L209.536 52.2149L209.138 51.9729L208.761 51.7309L208.391 51.4676L208.02 51.1758L207.672 50.8839L207.33 50.5352L207.01 50.2149L206.689 49.8448L206.398 49.4746L206.127 49.0689L205.892 48.6703L205.65 48.2433L205.437 47.8233L205.28 47.3963L205.116 46.9408L204.981 46.4639L204.853 45.987L204.746 45.4816L204.668 44.9763V42.1292L204.725 41.5385L204.803 40.9833L204.882 40.4495L204.988 39.9441L205.024 39.5313L205.159 39.0544L205.344 38.6273L205.686 37.7732L205.899 37.3462L206.113 36.9761L206.355 36.6059L206.618 36.2287L206.889 35.887L207.124 35.5881L207.394 35.2963L207.686 35.0045L207.949 34.734L208.241 34.4706L208.561 34.2571L208.853 34.0151L209.522 33.588L209.864 33.403L210.213 33.1895L210.924 32.7909L211.294 32.6343L211.693 32.4208L212.07 32.2642L212.839 31.9439L213.636 31.5951L214.49 31.2748L215.366 30.9332L216.298 30.5844L217.259 30.2641L218.241 29.894L219.259 29.5879L220.27 29.2463L221.224 28.8975L222.106 28.5772L222.903 28.2569L223.615 27.9366L224.256 27.6448L224.868 27.353L225.373 27.0896V22.1073L225.323 21.3955L225.238 20.641V20.2425L225.181 19.8723L225.131 19.4951L225.053 19.1535L224.968 18.8047L224.918 18.5058L224.811 18.2139L224.704 17.9221L224.597 17.6303L224.469 17.3385L224.306 17.0395L224.121 16.7477L223.935 16.5128L223.722 16.2708L223.48 16.0075L223.245 15.7939L222.975 15.6089L222.711 15.4167L222.391 15.2886L222.099 15.1533L221.75 15.0466L221.359 14.9469H219.551L219.259 14.9968L215.209 16.043L211.487 25.3601L205.85 24.2426L206.803 12.6408L218.697 11.929L219.337 11.8508L219.942 11.7725H223.501L224.213 11.8223L224.925 11.8792L225.637 11.9575L226.348 12.0643L227.01 12.171L227.722 12.2778L228.363 12.4344L229.003 12.6479L229.615 12.8615L230.227 13.1035L230.811 13.3668L231.366 13.6871L231.658 13.8722L231.929 14.0359L232.171 14.2209L232.434 14.406L232.676 14.591L232.911 14.8046L233.124 15.0181L233.366 15.2601L233.551 15.495L233.765 15.737L233.978 16.0003L234.377 16.5342L234.534 16.7975L234.726 17.1178L234.882 17.4096L235.067 17.7299L235.203 18.0502L235.359 18.3705L235.63 19.0823L235.737 19.4524L235.836 19.851L235.943 20.2496L236.05 20.6482L236.185 21.5023L236.242 21.9578L236.32 22.4347V34.0009L236.263 35.5169V44.8411L236.32 45.1827L236.37 45.5315L236.448 45.8518L236.555 46.1436L236.662 46.4069L236.769 46.6489L236.904 46.8909L237.06 47.1258L237.224 47.3109L237.409 47.503L237.594 47.6596L238.05 47.9515L238.178 48.0084L238.363 48.0867L238.548 48.165H238.762L239.004 48.2148H242V51.3039V51.2968ZM225.131 31.8513L224.654 32.0364L224.306 32.193L223.743 32.435L223.266 32.6485L221.43 33.5809L220.982 33.8158L220.555 34.0578L220.128 34.3212L219.757 34.5632L219.38 34.8265L219.067 35.0685L218.718 35.3319L218.426 35.6023L218.135 35.8942L217.843 36.2145L217.572 36.5348L217.337 36.8764L217.095 37.2252L216.668 37.9939L216.483 38.4209L216.32 38.8765L216.191 39.3249L216.056 39.8089L215.978 40.3071L215.9 40.8196L215.814 41.3748V43.5812L215.871 43.93L215.949 44.5706L216.006 44.8624L216.085 45.1542L216.163 45.4176L216.241 45.6881L216.348 45.9229L216.455 46.1649L216.562 46.3785L216.697 46.592L216.825 46.7771L216.96 46.9621L217.28 47.2824L217.601 47.5742L217.757 47.7095L217.942 47.8162L218.106 47.923L218.291 48.0013L218.476 48.0796L218.661 48.1579L218.853 48.2148L219.067 48.2646H219.224L219.651 48.3145H220.313L220.74 48.2646L221.138 48.2077L221.537 48.108L221.907 47.9728L222.256 47.8091L222.576 47.6241L222.733 47.5173L222.896 47.4105L223.494 46.9763L223.786 46.7059L224.028 46.4425L224.533 45.8873L225.01 45.2468L225.145 31.8371L225.131 31.8513Z" fill="#1B1464"/>
<path fill-rule="evenodd" clip-rule="evenodd" d="M61.2117 31.6239C61.2117 33.8974 60.5375 36.1198 59.2744 38.0102C58.0113 39.9005 56.2161 41.3739 54.1156 42.2439C52.0152 43.1139 49.7039 43.3416 47.4741 42.898C45.2443 42.4545 43.1961 41.3597 41.5885 39.7521C39.9809 38.1445 38.8861 36.0963 38.4426 33.8665C37.999 31.6367 38.2267 29.3254 39.0967 27.225C39.9667 25.1245 41.4401 23.3292 43.3304 22.0662C45.2207 20.8031 47.4432 20.1289 49.7167 20.1289C52.7653 20.1289 55.6891 21.34 57.8449 23.4957C60.0006 25.6514 61.2117 28.5752 61.2117 31.6239Z" fill="#ED3024"/>
</g>
<defs>
<clipPath id="clip0_38_67">
<rect width="242" height="53.482" fill="white"/>
</clipPath>
</defs>
</svg>
