<svg width="35" height="46" viewBox="0 0 35 46" fill="none" xmlns="http://www.w3.org/2000/svg">
<path fill-rule="evenodd" clip-rule="evenodd" d="M19.4296 44.9664C24.0505 39.1834 34.5895 25.1675 34.5895 17.2948C34.5895 7.74661 26.8429 0 17.2948 0C7.74661 0 0 7.74661 0 17.2948C0 25.1675 10.539 39.1834 15.1599 44.9664C16.2679 46.3445 18.3216 46.3445 19.4296 44.9664ZM17.5 25C22.1944 25 26 21.1944 26 16.5C26 11.8056 22.1944 8 17.5 8C12.8056 8 9 11.8056 9 16.5C9 21.1944 12.8056 25 17.5 25Z" fill="#6CBEAD"/>
</svg>
