<svg width="486" height="510" viewBox="0 0 486 510" fill="none" xmlns="http://www.w3.org/2000/svg">
<path fill-rule="evenodd" clip-rule="evenodd" d="M149 20C137.954 20 129 28.9543 129 40V176H109V40C109 17.9086 126.909 0 149 0H340.057L486 141.773V468C486 491.196 467.196 510 444 510H150C127.356 510 109 491.644 109 469V383H129V469C129 480.598 138.402 490 150 490H444C456.15 490 466 480.15 466 468V156H343C333.611 156 326 148.389 326 139V20H149ZM346 33.6558L451.354 136H346V33.6558Z" fill="#60C5AF"/>
<path fill-rule="evenodd" clip-rule="evenodd" d="M0 206C0 189.431 13.4315 176 30 176H296C312.569 176 326 189.431 326 206V353C326 369.569 312.569 383 296 383H30C13.4315 383 0 369.569 0 353V206ZM30 196C24.4772 196 20 200.477 20 206V353C20 358.523 24.4772 363 30 363H296C301.523 363 306 358.523 306 353V206C306 200.477 301.523 196 296 196H30Z" fill="#60C5AF"/>
<path d="M52.5852 323V235.727H87.017C93.6364 235.727 99.2756 236.991 103.935 239.52C108.594 242.02 112.145 245.5 114.588 249.96C117.06 254.392 118.295 259.506 118.295 265.301C118.295 271.097 117.045 276.21 114.545 280.642C112.045 285.074 108.423 288.526 103.679 290.997C98.9631 293.469 93.2528 294.705 86.5483 294.705H64.6023V279.918H83.5653C87.1165 279.918 90.0426 279.307 92.3438 278.085C94.6733 276.835 96.4063 275.116 97.5426 272.929C98.7074 270.713 99.2898 268.17 99.2898 265.301C99.2898 262.403 98.7074 259.875 97.5426 257.716C96.4063 255.528 94.6733 253.838 92.3438 252.645C90.0142 251.423 87.0597 250.812 83.4801 250.812H71.0369V323H52.5852ZM161.218 323H130.281V235.727H161.474C170.252 235.727 177.809 237.474 184.144 240.969C190.479 244.435 195.352 249.42 198.761 255.926C202.198 262.432 203.917 270.216 203.917 279.278C203.917 288.369 202.198 296.182 198.761 302.716C195.352 309.25 190.451 314.264 184.059 317.759C177.695 321.253 170.082 323 161.218 323ZM148.732 307.19H160.451C165.906 307.19 170.494 306.224 174.215 304.293C177.965 302.332 180.778 299.307 182.653 295.216C184.556 291.097 185.508 285.784 185.508 279.278C185.508 272.83 184.556 267.56 182.653 263.469C180.778 259.378 177.979 256.366 174.258 254.435C170.536 252.503 165.948 251.537 160.494 251.537H148.732V307.19ZM217.585 323V235.727H275.369V250.94H236.037V271.736H271.534V286.949H236.037V323H217.585Z" fill="#60C5AF"/>
</svg>
